<?xml version="1.0" encoding="UTF-8" standalone="no"?>
<!DOCTYPE svg PUBLIC "-//W3C//DTD SVG 1.1//EN"
 "http://www.w3.org/Graphics/SVG/1.1/DTD/svg11.dtd">
<!-- Generated by graphviz version 2.43.0 (0)
 -->
<!-- Title: kdtree Pages: 1 -->
<svg width="3261pt" height="562pt"
 viewBox="0.00 0.00 3261.00 562.00" xmlns="http://www.w3.org/2000/svg" xmlns:xlink="http://www.w3.org/1999/xlink">
<g id="graph0" class="graph" transform="scale(1 1) rotate(0) translate(4 558)">
<title>kdtree</title>
<polygon fill="white" stroke="transparent" points="-4,4 -4,-558 3257,-558 3257,4 -4,4"/>
<!-- NODE0 -->
<g id="node1" class="node">
<title>NODE0</title>
<path fill="lightgrey" stroke="transparent" d="M2048.5,-554C2048.5,-554 1866.5,-554 1866.5,-554 1860.5,-554 1854.5,-548 1854.5,-542 1854.5,-542 1854.5,-528 1854.5,-528 1854.5,-522 1860.5,-516 1866.5,-516 1866.5,-516 2048.5,-516 2048.5,-516 2054.5,-516 2060.5,-522 2060.5,-528 2060.5,-528 2060.5,-542 2060.5,-542 2060.5,-548 2054.5,-554 2048.5,-554"/>
<text text-anchor="middle" x="1957.5" y="-538.8" font-family="Times,serif" font-size="14.00" fill="#101010">SplitPosition: y at 3.04019</text>
<text text-anchor="middle" x="1957.5" y="-523.8" font-family="Times,serif" font-size="14.00" fill="#101010">1197 subtriangles</text>
</g>
<!-- NODE1 -->
<g id="node2" class="node">
<title>NODE1</title>
<path fill="lightgrey" stroke="transparent" d="M1500,-480C1500,-480 1295,-480 1295,-480 1289,-480 1283,-474 1283,-468 1283,-468 1283,-454 1283,-454 1283,-448 1289,-442 1295,-442 1295,-442 1500,-442 1500,-442 1506,-442 1512,-448 1512,-454 1512,-454 1512,-468 1512,-468 1512,-474 1506,-480 1500,-480"/>
<text text-anchor="middle" x="1397.5" y="-464.8" font-family="Times,serif" font-size="14.00" fill="#101010">SplitPosition: x at &#45;0.0802249</text>
<text text-anchor="middle" x="1397.5" y="-449.8" font-family="Times,serif" font-size="14.00" fill="#101010">605 subtriangles</text>
</g>
<!-- NODE0&#45;&gt;NODE1 -->
<g id="edge1" class="edge">
<title>NODE0&#45;&gt;NODE1</title>
<path fill="none" stroke="black" d="M1854.46,-520.75C1760.85,-508.72 1622.54,-490.93 1522.61,-478.09"/>
<polygon fill="black" stroke="black" points="1522.82,-474.58 1512.46,-476.78 1521.93,-481.53 1522.82,-474.58"/>
</g>
<!-- NODE34 -->
<g id="node35" class="node">
<title>NODE34</title>
<path fill="lightgrey" stroke="transparent" d="M2326,-480C2326,-480 2121,-480 2121,-480 2115,-480 2109,-474 2109,-468 2109,-468 2109,-454 2109,-454 2109,-448 2115,-442 2121,-442 2121,-442 2326,-442 2326,-442 2332,-442 2338,-448 2338,-454 2338,-454 2338,-468 2338,-468 2338,-474 2332,-480 2326,-480"/>
<text text-anchor="middle" x="2223.5" y="-464.8" font-family="Times,serif" font-size="14.00" fill="#101010">SplitPosition: x at &#45;0.0926381</text>
<text text-anchor="middle" x="2223.5" y="-449.8" font-family="Times,serif" font-size="14.00" fill="#101010">592 subtriangles</text>
</g>
<!-- NODE0&#45;&gt;NODE34 -->
<g id="edge34" class="edge">
<title>NODE0&#45;&gt;NODE34</title>
<path fill="none" stroke="black" d="M2024.28,-515.92C2061.59,-505.82 2108.24,-493.2 2147.01,-482.7"/>
<polygon fill="black" stroke="black" points="2147.95,-486.07 2156.69,-480.08 2146.13,-479.32 2147.95,-486.07"/>
</g>
<!-- NODE2 -->
<g id="node3" class="node">
<title>NODE2</title>
<path fill="lightgrey" stroke="transparent" d="M861.5,-406C861.5,-406 679.5,-406 679.5,-406 673.5,-406 667.5,-400 667.5,-394 667.5,-394 667.5,-380 667.5,-380 667.5,-374 673.5,-368 679.5,-368 679.5,-368 861.5,-368 861.5,-368 867.5,-368 873.5,-374 873.5,-380 873.5,-380 873.5,-394 873.5,-394 873.5,-400 867.5,-406 861.5,-406"/>
<text text-anchor="middle" x="770.5" y="-390.8" font-family="Times,serif" font-size="14.00" fill="#101010">SplitPosition: y at 1.46154</text>
<text text-anchor="middle" x="770.5" y="-375.8" font-family="Times,serif" font-size="14.00" fill="#101010">315 subtriangles</text>
</g>
<!-- NODE1&#45;&gt;NODE2 -->
<g id="edge2" class="edge">
<title>NODE1&#45;&gt;NODE2</title>
<path fill="none" stroke="black" d="M1282.86,-446.84C1169.41,-433.81 996.77,-413.98 883.79,-401.01"/>
<polygon fill="black" stroke="black" points="884.06,-397.52 873.72,-399.85 883.26,-404.47 884.06,-397.52"/>
</g>
<!-- NODE19 -->
<g id="node20" class="node">
<title>NODE19</title>
<path fill="lightgrey" stroke="transparent" d="M1488.5,-406C1488.5,-406 1306.5,-406 1306.5,-406 1300.5,-406 1294.5,-400 1294.5,-394 1294.5,-394 1294.5,-380 1294.5,-380 1294.5,-374 1300.5,-368 1306.5,-368 1306.5,-368 1488.5,-368 1488.5,-368 1494.5,-368 1500.5,-374 1500.5,-380 1500.5,-380 1500.5,-394 1500.5,-394 1500.5,-400 1494.5,-406 1488.5,-406"/>
<text text-anchor="middle" x="1397.5" y="-390.8" font-family="Times,serif" font-size="14.00" fill="#101010">SplitPosition: y at 1.46154</text>
<text text-anchor="middle" x="1397.5" y="-375.8" font-family="Times,serif" font-size="14.00" fill="#101010">290 subtriangles</text>
</g>
<!-- NODE1&#45;&gt;NODE19 -->
<g id="edge19" class="edge">
<title>NODE1&#45;&gt;NODE19</title>
<path fill="none" stroke="black" d="M1397.5,-441.83C1397.5,-434.13 1397.5,-424.97 1397.5,-416.42"/>
<polygon fill="black" stroke="black" points="1401,-416.41 1397.5,-406.41 1394,-416.41 1401,-416.41"/>
</g>
<!-- NODE3 -->
<g id="node4" class="node">
<title>NODE3</title>
<path fill="lightgrey" stroke="transparent" d="M508,-332C508,-332 313,-332 313,-332 307,-332 301,-326 301,-320 301,-320 301,-306 301,-306 301,-300 307,-294 313,-294 313,-294 508,-294 508,-294 514,-294 520,-300 520,-306 520,-306 520,-320 520,-320 520,-326 514,-332 508,-332"/>
<text text-anchor="middle" x="410.5" y="-316.8" font-family="Times,serif" font-size="14.00" fill="#101010">SplitPosition: z at &#45;0.148607</text>
<text text-anchor="middle" x="410.5" y="-301.8" font-family="Times,serif" font-size="14.00" fill="#101010">146 subtriangles</text>
</g>
<!-- NODE2&#45;&gt;NODE3 -->
<g id="edge3" class="edge">
<title>NODE2&#45;&gt;NODE3</title>
<path fill="none" stroke="black" d="M680.12,-367.92C628.56,-357.61 563.83,-344.67 510.72,-334.04"/>
<polygon fill="black" stroke="black" points="511.1,-330.55 500.6,-332.02 509.72,-337.41 511.1,-330.55"/>
</g>
<!-- NODE10 -->
<g id="node11" class="node">
<title>NODE10</title>
<path fill="lightgrey" stroke="transparent" d="M868,-332C868,-332 673,-332 673,-332 667,-332 661,-326 661,-320 661,-320 661,-306 661,-306 661,-300 667,-294 673,-294 673,-294 868,-294 868,-294 874,-294 880,-300 880,-306 880,-306 880,-320 880,-320 880,-326 874,-332 868,-332"/>
<text text-anchor="middle" x="770.5" y="-316.8" font-family="Times,serif" font-size="14.00" fill="#101010">SplitPosition: z at &#45;0.509473</text>
<text text-anchor="middle" x="770.5" y="-301.8" font-family="Times,serif" font-size="14.00" fill="#101010">169 subtriangles</text>
</g>
<!-- NODE2&#45;&gt;NODE10 -->
<g id="edge10" class="edge">
<title>NODE2&#45;&gt;NODE10</title>
<path fill="none" stroke="black" d="M770.5,-367.83C770.5,-360.13 770.5,-350.97 770.5,-342.42"/>
<polygon fill="black" stroke="black" points="774,-342.41 770.5,-332.41 767,-342.41 774,-342.41"/>
</g>
<!-- NODE4 -->
<g id="node5" class="node">
<title>NODE4</title>
<path fill="lightgrey" stroke="transparent" d="M266,-258C266,-258 79,-258 79,-258 73,-258 67,-252 67,-246 67,-246 67,-232 67,-232 67,-226 73,-220 79,-220 79,-220 266,-220 266,-220 272,-220 278,-226 278,-232 278,-232 278,-246 278,-246 278,-252 272,-258 266,-258"/>
<text text-anchor="middle" x="172.5" y="-242.8" font-family="Times,serif" font-size="14.00" fill="#101010">SplitPosition: x at &#45;1.22882</text>
<text text-anchor="middle" x="172.5" y="-227.8" font-family="Times,serif" font-size="14.00" fill="#101010">85 subtriangles</text>
</g>
<!-- NODE3&#45;&gt;NODE4 -->
<g id="edge4" class="edge">
<title>NODE3&#45;&gt;NODE4</title>
<path fill="none" stroke="black" d="M350.75,-293.92C317.79,-283.95 276.69,-271.52 242.26,-261.1"/>
<polygon fill="black" stroke="black" points="242.86,-257.63 232.27,-258.08 240.83,-264.33 242.86,-257.63"/>
</g>
<!-- NODE7 -->
<g id="node8" class="node">
<title>NODE7</title>
<path fill="lightgrey" stroke="transparent" d="M508.5,-258C508.5,-258 312.5,-258 312.5,-258 306.5,-258 300.5,-252 300.5,-246 300.5,-246 300.5,-232 300.5,-232 300.5,-226 306.5,-220 312.5,-220 312.5,-220 508.5,-220 508.5,-220 514.5,-220 520.5,-226 520.5,-232 520.5,-232 520.5,-246 520.5,-246 520.5,-252 514.5,-258 508.5,-258"/>
<text text-anchor="middle" x="410.5" y="-242.8" font-family="Times,serif" font-size="14.00" fill="#101010">SplitPosition: x at &#45;0.784282</text>
<text text-anchor="middle" x="410.5" y="-227.8" font-family="Times,serif" font-size="14.00" fill="#101010">61 subtriangles</text>
</g>
<!-- NODE3&#45;&gt;NODE7 -->
<g id="edge7" class="edge">
<title>NODE3&#45;&gt;NODE7</title>
<path fill="none" stroke="black" d="M410.5,-293.83C410.5,-286.13 410.5,-276.97 410.5,-268.42"/>
<polygon fill="black" stroke="black" points="414,-268.41 410.5,-258.41 407,-268.41 414,-268.41"/>
</g>
<!-- NODE5 -->
<g id="node6" class="node">
<title>NODE5</title>
<path fill="lightgrey" stroke="transparent" d="M91,-183C91,-183 12,-183 12,-183 6,-183 0,-177 0,-171 0,-171 0,-159 0,-159 0,-153 6,-147 12,-147 12,-147 91,-147 91,-147 97,-147 103,-153 103,-159 103,-159 103,-171 103,-171 103,-177 97,-183 91,-183"/>
<text text-anchor="middle" x="51.5" y="-161.3" font-family="Times,serif" font-size="14.00" fill="#101010">39 triangles</text>
</g>
<!-- NODE4&#45;&gt;NODE5 -->
<g id="edge5" class="edge">
<title>NODE4&#45;&gt;NODE5</title>
<path fill="none" stroke="black" d="M141.97,-219.83C125.87,-210.25 105.99,-198.42 88.96,-188.29"/>
<polygon fill="black" stroke="black" points="90.74,-185.28 80.36,-183.17 87.16,-191.29 90.74,-185.28"/>
</g>
<!-- NODE6 -->
<g id="node7" class="node">
<title>NODE6</title>
<path fill="lightgrey" stroke="transparent" d="M212,-183C212,-183 133,-183 133,-183 127,-183 121,-177 121,-171 121,-171 121,-159 121,-159 121,-153 127,-147 133,-147 133,-147 212,-147 212,-147 218,-147 224,-153 224,-159 224,-159 224,-171 224,-171 224,-177 218,-183 212,-183"/>
<text text-anchor="middle" x="172.5" y="-161.3" font-family="Times,serif" font-size="14.00" fill="#101010">46 triangles</text>
</g>
<!-- NODE4&#45;&gt;NODE6 -->
<g id="edge6" class="edge">
<title>NODE4&#45;&gt;NODE6</title>
<path fill="none" stroke="black" d="M172.5,-219.83C172.5,-211.89 172.5,-202.41 172.5,-193.63"/>
<polygon fill="black" stroke="black" points="176,-193.42 172.5,-183.42 169,-193.42 176,-193.42"/>
</g>
<!-- NODE8 -->
<g id="node9" class="node">
<title>NODE8</title>
<path fill="lightgrey" stroke="transparent" d="M333,-183C333,-183 254,-183 254,-183 248,-183 242,-177 242,-171 242,-171 242,-159 242,-159 242,-153 248,-147 254,-147 254,-147 333,-147 333,-147 339,-147 345,-153 345,-159 345,-159 345,-171 345,-171 345,-177 339,-183 333,-183"/>
<text text-anchor="middle" x="293.5" y="-161.3" font-family="Times,serif" font-size="14.00" fill="#101010">29 triangles</text>
</g>
<!-- NODE7&#45;&gt;NODE8 -->
<g id="edge8" class="edge">
<title>NODE7&#45;&gt;NODE8</title>
<path fill="none" stroke="black" d="M380.98,-219.83C365.55,-210.34 346.54,-198.64 330.18,-188.57"/>
<polygon fill="black" stroke="black" points="331.75,-185.43 321.4,-183.17 328.09,-191.39 331.75,-185.43"/>
</g>
<!-- NODE9 -->
<g id="node10" class="node">
<title>NODE9</title>
<path fill="lightgrey" stroke="transparent" d="M454,-183C454,-183 375,-183 375,-183 369,-183 363,-177 363,-171 363,-171 363,-159 363,-159 363,-153 369,-147 375,-147 375,-147 454,-147 454,-147 460,-147 466,-153 466,-159 466,-159 466,-171 466,-171 466,-177 460,-183 454,-183"/>
<text text-anchor="middle" x="414.5" y="-161.3" font-family="Times,serif" font-size="14.00" fill="#101010">32 triangles</text>
</g>
<!-- NODE7&#45;&gt;NODE9 -->
<g id="edge9" class="edge">
<title>NODE7&#45;&gt;NODE9</title>
<path fill="none" stroke="black" d="M411.51,-219.83C411.95,-211.89 412.48,-202.41 412.97,-193.63"/>
<polygon fill="black" stroke="black" points="416.47,-193.6 413.53,-183.42 409.48,-193.21 416.47,-193.6"/>
</g>
<!-- NODE11 -->
<g id="node12" class="node">
<title>NODE11</title>
<path fill="lightgrey" stroke="transparent" d="M751.5,-258C751.5,-258 555.5,-258 555.5,-258 549.5,-258 543.5,-252 543.5,-246 543.5,-246 543.5,-232 543.5,-232 543.5,-226 549.5,-220 555.5,-220 555.5,-220 751.5,-220 751.5,-220 757.5,-220 763.5,-226 763.5,-232 763.5,-232 763.5,-246 763.5,-246 763.5,-252 757.5,-258 751.5,-258"/>
<text text-anchor="middle" x="653.5" y="-242.8" font-family="Times,serif" font-size="14.00" fill="#101010">SplitPosition: x at &#45;0.818273</text>
<text text-anchor="middle" x="653.5" y="-227.8" font-family="Times,serif" font-size="14.00" fill="#101010">103 subtriangles</text>
</g>
<!-- NODE10&#45;&gt;NODE11 -->
<g id="edge11" class="edge">
<title>NODE10&#45;&gt;NODE11</title>
<path fill="none" stroke="black" d="M740.98,-293.83C726.01,-284.62 707.66,-273.33 691.64,-263.47"/>
<polygon fill="black" stroke="black" points="693.37,-260.42 683.01,-258.16 689.7,-266.38 693.37,-260.42"/>
</g>
<!-- NODE16 -->
<g id="node17" class="node">
<title>NODE16</title>
<path fill="lightgrey" stroke="transparent" d="M981,-258C981,-258 794,-258 794,-258 788,-258 782,-252 782,-246 782,-246 782,-232 782,-232 782,-226 788,-220 794,-220 794,-220 981,-220 981,-220 987,-220 993,-226 993,-232 993,-232 993,-246 993,-246 993,-252 987,-258 981,-258"/>
<text text-anchor="middle" x="887.5" y="-242.8" font-family="Times,serif" font-size="14.00" fill="#101010">SplitPosition: x at &#45;1.37942</text>
<text text-anchor="middle" x="887.5" y="-227.8" font-family="Times,serif" font-size="14.00" fill="#101010">66 subtriangles</text>
</g>
<!-- NODE10&#45;&gt;NODE16 -->
<g id="edge16" class="edge">
<title>NODE10&#45;&gt;NODE16</title>
<path fill="none" stroke="black" d="M800.02,-293.83C814.99,-284.62 833.34,-273.33 849.36,-263.47"/>
<polygon fill="black" stroke="black" points="851.3,-266.38 857.99,-258.16 847.63,-260.42 851.3,-266.38"/>
</g>
<!-- NODE12 -->
<g id="node13" class="node">
<title>NODE12</title>
<path fill="lightgrey" stroke="transparent" d="M575,-183C575,-183 496,-183 496,-183 490,-183 484,-177 484,-171 484,-171 484,-159 484,-159 484,-153 490,-147 496,-147 496,-147 575,-147 575,-147 581,-147 587,-153 587,-159 587,-159 587,-171 587,-171 587,-177 581,-183 575,-183"/>
<text text-anchor="middle" x="535.5" y="-161.3" font-family="Times,serif" font-size="14.00" fill="#101010">43 triangles</text>
</g>
<!-- NODE11&#45;&gt;NODE12 -->
<g id="edge12" class="edge">
<title>NODE11&#45;&gt;NODE12</title>
<path fill="none" stroke="black" d="M623.72,-219.83C608.17,-210.34 588.99,-198.64 572.49,-188.57"/>
<polygon fill="black" stroke="black" points="574,-185.39 563.64,-183.17 570.36,-191.37 574,-185.39"/>
</g>
<!-- NODE13 -->
<g id="node14" class="node">
<title>NODE13</title>
<path fill="lightgrey" stroke="transparent" d="M799.5,-184C799.5,-184 617.5,-184 617.5,-184 611.5,-184 605.5,-178 605.5,-172 605.5,-172 605.5,-158 605.5,-158 605.5,-152 611.5,-146 617.5,-146 617.5,-146 799.5,-146 799.5,-146 805.5,-146 811.5,-152 811.5,-158 811.5,-158 811.5,-172 811.5,-172 811.5,-178 805.5,-184 799.5,-184"/>
<text text-anchor="middle" x="708.5" y="-168.8" font-family="Times,serif" font-size="14.00" fill="#101010">SplitPosition: y at 2.12487</text>
<text text-anchor="middle" x="708.5" y="-153.8" font-family="Times,serif" font-size="14.00" fill="#101010">60 subtriangles</text>
</g>
<!-- NODE11&#45;&gt;NODE13 -->
<g id="edge13" class="edge">
<title>NODE11&#45;&gt;NODE13</title>
<path fill="none" stroke="black" d="M667.38,-219.83C673.71,-211.54 681.34,-201.56 688.29,-192.45"/>
<polygon fill="black" stroke="black" points="691.15,-194.48 694.43,-184.41 685.58,-190.24 691.15,-194.48"/>
</g>
<!-- NODE14 -->
<g id="node15" class="node">
<title>NODE14</title>
<path fill="lightgrey" stroke="transparent" d="M688,-109C688,-109 609,-109 609,-109 603,-109 597,-103 597,-97 597,-97 597,-85 597,-85 597,-79 603,-73 609,-73 609,-73 688,-73 688,-73 694,-73 700,-79 700,-85 700,-85 700,-97 700,-97 700,-103 694,-109 688,-109"/>
<text text-anchor="middle" x="648.5" y="-87.3" font-family="Times,serif" font-size="14.00" fill="#101010">29 triangles</text>
</g>
<!-- NODE13&#45;&gt;NODE14 -->
<g id="edge14" class="edge">
<title>NODE13&#45;&gt;NODE14</title>
<path fill="none" stroke="black" d="M693.36,-145.83C686.16,-137.2 677.44,-126.73 669.61,-117.33"/>
<polygon fill="black" stroke="black" points="672.11,-114.86 663.01,-109.42 666.73,-119.34 672.11,-114.86"/>
</g>
<!-- NODE15 -->
<g id="node16" class="node">
<title>NODE15</title>
<path fill="lightgrey" stroke="transparent" d="M809,-109C809,-109 730,-109 730,-109 724,-109 718,-103 718,-97 718,-97 718,-85 718,-85 718,-79 724,-73 730,-73 730,-73 809,-73 809,-73 815,-73 821,-79 821,-85 821,-85 821,-97 821,-97 821,-103 815,-109 809,-109"/>
<text text-anchor="middle" x="769.5" y="-87.3" font-family="Times,serif" font-size="14.00" fill="#101010">31 triangles</text>
</g>
<!-- NODE13&#45;&gt;NODE15 -->
<g id="edge15" class="edge">
<title>NODE13&#45;&gt;NODE15</title>
<path fill="none" stroke="black" d="M723.89,-145.83C731.21,-137.2 740.08,-126.73 748.04,-117.33"/>
<polygon fill="black" stroke="black" points="750.95,-119.31 754.74,-109.42 745.61,-114.79 750.95,-119.31"/>
</g>
<!-- NODE17 -->
<g id="node18" class="node">
<title>NODE17</title>
<path fill="lightgrey" stroke="transparent" d="M921,-183C921,-183 842,-183 842,-183 836,-183 830,-177 830,-171 830,-171 830,-159 830,-159 830,-153 836,-147 842,-147 842,-147 921,-147 921,-147 927,-147 933,-153 933,-159 933,-159 933,-171 933,-171 933,-177 927,-183 921,-183"/>
<text text-anchor="middle" x="881.5" y="-161.3" font-family="Times,serif" font-size="14.00" fill="#101010">29 triangles</text>
</g>
<!-- NODE16&#45;&gt;NODE17 -->
<g id="edge17" class="edge">
<title>NODE16&#45;&gt;NODE17</title>
<path fill="none" stroke="black" d="M885.99,-219.83C885.32,-211.89 884.53,-202.41 883.8,-193.63"/>
<polygon fill="black" stroke="black" points="887.27,-193.09 882.95,-183.42 880.29,-193.67 887.27,-193.09"/>
</g>
<!-- NODE18 -->
<g id="node19" class="node">
<title>NODE18</title>
<path fill="lightgrey" stroke="transparent" d="M1042,-183C1042,-183 963,-183 963,-183 957,-183 951,-177 951,-171 951,-171 951,-159 951,-159 951,-153 957,-147 963,-147 963,-147 1042,-147 1042,-147 1048,-147 1054,-153 1054,-159 1054,-159 1054,-171 1054,-171 1054,-177 1048,-183 1042,-183"/>
<text text-anchor="middle" x="1002.5" y="-161.3" font-family="Times,serif" font-size="14.00" fill="#101010">37 triangles</text>
</g>
<!-- NODE16&#45;&gt;NODE18 -->
<g id="edge18" class="edge">
<title>NODE16&#45;&gt;NODE18</title>
<path fill="none" stroke="black" d="M916.52,-219.83C931.68,-210.34 950.37,-198.64 966.45,-188.57"/>
<polygon fill="black" stroke="black" points="968.45,-191.44 975.07,-183.17 964.74,-185.51 968.45,-191.44"/>
</g>
<!-- NODE20 -->
<g id="node21" class="node">
<title>NODE20</title>
<path fill="lightgrey" stroke="transparent" d="M1378.5,-332C1378.5,-332 1174.5,-332 1174.5,-332 1168.5,-332 1162.5,-326 1162.5,-320 1162.5,-320 1162.5,-306 1162.5,-306 1162.5,-300 1168.5,-294 1174.5,-294 1174.5,-294 1378.5,-294 1378.5,-294 1384.5,-294 1390.5,-300 1390.5,-306 1390.5,-306 1390.5,-320 1390.5,-320 1390.5,-326 1384.5,-332 1378.5,-332"/>
<text text-anchor="middle" x="1276.5" y="-316.8" font-family="Times,serif" font-size="14.00" fill="#101010">SplitPosition: z at &#45;0.0568006</text>
<text text-anchor="middle" x="1276.5" y="-301.8" font-family="Times,serif" font-size="14.00" fill="#101010">114 subtriangles</text>
</g>
<!-- NODE19&#45;&gt;NODE20 -->
<g id="edge20" class="edge">
<title>NODE19&#45;&gt;NODE20</title>
<path fill="none" stroke="black" d="M1366.97,-367.83C1351.49,-358.62 1332.51,-347.33 1315.94,-337.47"/>
<polygon fill="black" stroke="black" points="1317.41,-334.27 1307.02,-332.16 1313.83,-340.28 1317.41,-334.27"/>
</g>
<!-- NODE25 -->
<g id="node26" class="node">
<title>NODE25</title>
<path fill="lightgrey" stroke="transparent" d="M1616,-332C1616,-332 1421,-332 1421,-332 1415,-332 1409,-326 1409,-320 1409,-320 1409,-306 1409,-306 1409,-300 1415,-294 1421,-294 1421,-294 1616,-294 1616,-294 1622,-294 1628,-300 1628,-306 1628,-306 1628,-320 1628,-320 1628,-326 1622,-332 1616,-332"/>
<text text-anchor="middle" x="1518.5" y="-316.8" font-family="Times,serif" font-size="14.00" fill="#101010">SplitPosition: z at &#45;0.509508</text>
<text text-anchor="middle" x="1518.5" y="-301.8" font-family="Times,serif" font-size="14.00" fill="#101010">176 subtriangles</text>
</g>
<!-- NODE19&#45;&gt;NODE25 -->
<g id="edge25" class="edge">
<title>NODE19&#45;&gt;NODE25</title>
<path fill="none" stroke="black" d="M1428.03,-367.83C1443.51,-358.62 1462.49,-347.33 1479.06,-337.47"/>
<polygon fill="black" stroke="black" points="1481.17,-340.28 1487.98,-332.16 1477.59,-334.27 1481.17,-340.28"/>
</g>
<!-- NODE21 -->
<g id="node22" class="node">
<title>NODE21</title>
<path fill="lightgrey" stroke="transparent" d="M1227,-258C1227,-258 1036,-258 1036,-258 1030,-258 1024,-252 1024,-246 1024,-246 1024,-232 1024,-232 1024,-226 1030,-220 1036,-220 1036,-220 1227,-220 1227,-220 1233,-220 1239,-226 1239,-232 1239,-232 1239,-246 1239,-246 1239,-252 1233,-258 1227,-258"/>
<text text-anchor="middle" x="1131.5" y="-242.8" font-family="Times,serif" font-size="14.00" fill="#101010">SplitPosition: x at 0.757292</text>
<text text-anchor="middle" x="1131.5" y="-227.8" font-family="Times,serif" font-size="14.00" fill="#101010">75 subtriangles</text>
</g>
<!-- NODE20&#45;&gt;NODE21 -->
<g id="edge21" class="edge">
<title>NODE20&#45;&gt;NODE21</title>
<path fill="none" stroke="black" d="M1239.91,-293.83C1220.78,-284.33 1197.18,-272.61 1176.89,-262.54"/>
<polygon fill="black" stroke="black" points="1178.34,-259.35 1167.83,-258.04 1175.23,-265.62 1178.34,-259.35"/>
</g>
<!-- NODE24 -->
<g id="node25" class="node">
<title>NODE24</title>
<path fill="lightgrey" stroke="transparent" d="M1348,-257C1348,-257 1269,-257 1269,-257 1263,-257 1257,-251 1257,-245 1257,-245 1257,-233 1257,-233 1257,-227 1263,-221 1269,-221 1269,-221 1348,-221 1348,-221 1354,-221 1360,-227 1360,-233 1360,-233 1360,-245 1360,-245 1360,-251 1354,-257 1348,-257"/>
<text text-anchor="middle" x="1308.5" y="-235.3" font-family="Times,serif" font-size="14.00" fill="#101010">39 triangles</text>
</g>
<!-- NODE20&#45;&gt;NODE24 -->
<g id="edge24" class="edge">
<title>NODE20&#45;&gt;NODE24</title>
<path fill="none" stroke="black" d="M1284.57,-293.83C1288.22,-285.63 1292.6,-275.78 1296.61,-266.76"/>
<polygon fill="black" stroke="black" points="1299.9,-267.98 1300.76,-257.42 1293.5,-265.13 1299.9,-267.98"/>
</g>
<!-- NODE22 -->
<g id="node23" class="node">
<title>NODE22</title>
<path fill="lightgrey" stroke="transparent" d="M1163,-183C1163,-183 1084,-183 1084,-183 1078,-183 1072,-177 1072,-171 1072,-171 1072,-159 1072,-159 1072,-153 1078,-147 1084,-147 1084,-147 1163,-147 1163,-147 1169,-147 1175,-153 1175,-159 1175,-159 1175,-171 1175,-171 1175,-177 1169,-183 1163,-183"/>
<text text-anchor="middle" x="1123.5" y="-161.3" font-family="Times,serif" font-size="14.00" fill="#101010">36 triangles</text>
</g>
<!-- NODE21&#45;&gt;NODE22 -->
<g id="edge22" class="edge">
<title>NODE21&#45;&gt;NODE22</title>
<path fill="none" stroke="black" d="M1129.48,-219.83C1128.6,-211.89 1127.55,-202.41 1126.57,-193.63"/>
<polygon fill="black" stroke="black" points="1130.02,-192.97 1125.44,-183.42 1123.06,-193.74 1130.02,-192.97"/>
</g>
<!-- NODE23 -->
<g id="node24" class="node">
<title>NODE23</title>
<path fill="lightgrey" stroke="transparent" d="M1284,-183C1284,-183 1205,-183 1205,-183 1199,-183 1193,-177 1193,-171 1193,-171 1193,-159 1193,-159 1193,-153 1199,-147 1205,-147 1205,-147 1284,-147 1284,-147 1290,-147 1296,-153 1296,-159 1296,-159 1296,-171 1296,-171 1296,-177 1290,-183 1284,-183"/>
<text text-anchor="middle" x="1244.5" y="-161.3" font-family="Times,serif" font-size="14.00" fill="#101010">39 triangles</text>
</g>
<!-- NODE21&#45;&gt;NODE23 -->
<g id="edge23" class="edge">
<title>NODE21&#45;&gt;NODE23</title>
<path fill="none" stroke="black" d="M1160.01,-219.83C1174.91,-210.34 1193.28,-198.64 1209.08,-188.57"/>
<polygon fill="black" stroke="black" points="1211,-191.5 1217.55,-183.17 1207.24,-185.59 1211,-191.5"/>
</g>
<!-- NODE26 -->
<g id="node27" class="node">
<title>NODE26</title>
<path fill="lightgrey" stroke="transparent" d="M1583,-258C1583,-258 1392,-258 1392,-258 1386,-258 1380,-252 1380,-246 1380,-246 1380,-232 1380,-232 1380,-226 1386,-220 1392,-220 1392,-220 1583,-220 1583,-220 1589,-220 1595,-226 1595,-232 1595,-232 1595,-246 1595,-246 1595,-252 1589,-258 1583,-258"/>
<text text-anchor="middle" x="1487.5" y="-242.8" font-family="Times,serif" font-size="14.00" fill="#101010">SplitPosition: x at 0.744438</text>
<text text-anchor="middle" x="1487.5" y="-227.8" font-family="Times,serif" font-size="14.00" fill="#101010">117 subtriangles</text>
</g>
<!-- NODE25&#45;&gt;NODE26 -->
<g id="edge26" class="edge">
<title>NODE25&#45;&gt;NODE26</title>
<path fill="none" stroke="black" d="M1510.68,-293.83C1507.29,-285.96 1503.25,-276.57 1499.49,-267.85"/>
<polygon fill="black" stroke="black" points="1502.6,-266.21 1495.43,-258.41 1496.17,-268.98 1502.6,-266.21"/>
</g>
<!-- NODE31 -->
<g id="node32" class="node">
<title>NODE31</title>
<path fill="lightgrey" stroke="transparent" d="M1807.5,-258C1807.5,-258 1625.5,-258 1625.5,-258 1619.5,-258 1613.5,-252 1613.5,-246 1613.5,-246 1613.5,-232 1613.5,-232 1613.5,-226 1619.5,-220 1625.5,-220 1625.5,-220 1807.5,-220 1807.5,-220 1813.5,-220 1819.5,-226 1819.5,-232 1819.5,-232 1819.5,-246 1819.5,-246 1819.5,-252 1813.5,-258 1807.5,-258"/>
<text text-anchor="middle" x="1716.5" y="-242.8" font-family="Times,serif" font-size="14.00" fill="#101010">SplitPosition: x at 1.21876</text>
<text text-anchor="middle" x="1716.5" y="-227.8" font-family="Times,serif" font-size="14.00" fill="#101010">59 subtriangles</text>
</g>
<!-- NODE25&#45;&gt;NODE31 -->
<g id="edge31" class="edge">
<title>NODE25&#45;&gt;NODE31</title>
<path fill="none" stroke="black" d="M1568.21,-293.92C1595.28,-284.08 1628.94,-271.84 1657.35,-261.51"/>
<polygon fill="black" stroke="black" points="1658.57,-264.79 1666.77,-258.08 1656.18,-258.21 1658.57,-264.79"/>
</g>
<!-- NODE27 -->
<g id="node28" class="node">
<title>NODE27</title>
<path fill="lightgrey" stroke="transparent" d="M1508.5,-184C1508.5,-184 1326.5,-184 1326.5,-184 1320.5,-184 1314.5,-178 1314.5,-172 1314.5,-172 1314.5,-158 1314.5,-158 1314.5,-152 1320.5,-146 1326.5,-146 1326.5,-146 1508.5,-146 1508.5,-146 1514.5,-146 1520.5,-152 1520.5,-158 1520.5,-158 1520.5,-172 1520.5,-172 1520.5,-178 1514.5,-184 1508.5,-184"/>
<text text-anchor="middle" x="1417.5" y="-168.8" font-family="Times,serif" font-size="14.00" fill="#101010">SplitPosition: y at 2.21049</text>
<text text-anchor="middle" x="1417.5" y="-153.8" font-family="Times,serif" font-size="14.00" fill="#101010">69 subtriangles</text>
</g>
<!-- NODE26&#45;&gt;NODE27 -->
<g id="edge27" class="edge">
<title>NODE26&#45;&gt;NODE27</title>
<path fill="none" stroke="black" d="M1469.84,-219.83C1461.53,-211.28 1451.47,-200.94 1442.41,-191.62"/>
<polygon fill="black" stroke="black" points="1444.88,-189.14 1435.4,-184.41 1439.86,-194.02 1444.88,-189.14"/>
</g>
<!-- NODE30 -->
<g id="node31" class="node">
<title>NODE30</title>
<path fill="lightgrey" stroke="transparent" d="M1630,-183C1630,-183 1551,-183 1551,-183 1545,-183 1539,-177 1539,-171 1539,-171 1539,-159 1539,-159 1539,-153 1545,-147 1551,-147 1551,-147 1630,-147 1630,-147 1636,-147 1642,-153 1642,-159 1642,-159 1642,-171 1642,-171 1642,-177 1636,-183 1630,-183"/>
<text text-anchor="middle" x="1590.5" y="-161.3" font-family="Times,serif" font-size="14.00" fill="#101010">48 triangles</text>
</g>
<!-- NODE26&#45;&gt;NODE30 -->
<g id="edge30" class="edge">
<title>NODE26&#45;&gt;NODE30</title>
<path fill="none" stroke="black" d="M1513.49,-219.83C1526.82,-210.52 1543.19,-199.07 1557.41,-189.13"/>
<polygon fill="black" stroke="black" points="1559.74,-191.77 1565.94,-183.17 1555.73,-186.03 1559.74,-191.77"/>
</g>
<!-- NODE28 -->
<g id="node29" class="node">
<title>NODE28</title>
<path fill="lightgrey" stroke="transparent" d="M1397,-109C1397,-109 1318,-109 1318,-109 1312,-109 1306,-103 1306,-97 1306,-97 1306,-85 1306,-85 1306,-79 1312,-73 1318,-73 1318,-73 1397,-73 1397,-73 1403,-73 1409,-79 1409,-85 1409,-85 1409,-97 1409,-97 1409,-103 1403,-109 1397,-109"/>
<text text-anchor="middle" x="1357.5" y="-87.3" font-family="Times,serif" font-size="14.00" fill="#101010">37 triangles</text>
</g>
<!-- NODE27&#45;&gt;NODE28 -->
<g id="edge28" class="edge">
<title>NODE27&#45;&gt;NODE28</title>
<path fill="none" stroke="black" d="M1402.36,-145.83C1395.16,-137.2 1386.44,-126.73 1378.61,-117.33"/>
<polygon fill="black" stroke="black" points="1381.11,-114.86 1372.01,-109.42 1375.73,-119.34 1381.11,-114.86"/>
</g>
<!-- NODE29 -->
<g id="node30" class="node">
<title>NODE29</title>
<path fill="lightgrey" stroke="transparent" d="M1518,-109C1518,-109 1439,-109 1439,-109 1433,-109 1427,-103 1427,-97 1427,-97 1427,-85 1427,-85 1427,-79 1433,-73 1439,-73 1439,-73 1518,-73 1518,-73 1524,-73 1530,-79 1530,-85 1530,-85 1530,-97 1530,-97 1530,-103 1524,-109 1518,-109"/>
<text text-anchor="middle" x="1478.5" y="-87.3" font-family="Times,serif" font-size="14.00" fill="#101010">32 triangles</text>
</g>
<!-- NODE27&#45;&gt;NODE29 -->
<g id="edge29" class="edge">
<title>NODE27&#45;&gt;NODE29</title>
<path fill="none" stroke="black" d="M1432.89,-145.83C1440.21,-137.2 1449.08,-126.73 1457.04,-117.33"/>
<polygon fill="black" stroke="black" points="1459.95,-119.31 1463.74,-109.42 1454.61,-114.79 1459.95,-119.31"/>
</g>
<!-- NODE32 -->
<g id="node33" class="node">
<title>NODE32</title>
<path fill="lightgrey" stroke="transparent" d="M1751,-183C1751,-183 1672,-183 1672,-183 1666,-183 1660,-177 1660,-171 1660,-171 1660,-159 1660,-159 1660,-153 1666,-147 1672,-147 1672,-147 1751,-147 1751,-147 1757,-147 1763,-153 1763,-159 1763,-159 1763,-171 1763,-171 1763,-177 1757,-183 1751,-183"/>
<text text-anchor="middle" x="1711.5" y="-161.3" font-family="Times,serif" font-size="14.00" fill="#101010">29 triangles</text>
</g>
<!-- NODE31&#45;&gt;NODE32 -->
<g id="edge32" class="edge">
<title>NODE31&#45;&gt;NODE32</title>
<path fill="none" stroke="black" d="M1715.24,-219.83C1714.69,-211.89 1714.03,-202.41 1713.42,-193.63"/>
<polygon fill="black" stroke="black" points="1716.89,-193.15 1712.71,-183.42 1709.91,-193.64 1716.89,-193.15"/>
</g>
<!-- NODE33 -->
<g id="node34" class="node">
<title>NODE33</title>
<path fill="lightgrey" stroke="transparent" d="M1872,-183C1872,-183 1793,-183 1793,-183 1787,-183 1781,-177 1781,-171 1781,-171 1781,-159 1781,-159 1781,-153 1787,-147 1793,-147 1793,-147 1872,-147 1872,-147 1878,-147 1884,-153 1884,-159 1884,-159 1884,-171 1884,-171 1884,-177 1878,-183 1872,-183"/>
<text text-anchor="middle" x="1832.5" y="-161.3" font-family="Times,serif" font-size="14.00" fill="#101010">30 triangles</text>
</g>
<!-- NODE31&#45;&gt;NODE33 -->
<g id="edge33" class="edge">
<title>NODE31&#45;&gt;NODE33</title>
<path fill="none" stroke="black" d="M1745.77,-219.83C1761.06,-210.34 1779.92,-198.64 1796.13,-188.57"/>
<polygon fill="black" stroke="black" points="1798.18,-191.42 1804.83,-183.17 1794.49,-185.47 1798.18,-191.42"/>
</g>
<!-- NODE35 -->
<g id="node36" class="node">
<title>NODE35</title>
<path fill="lightgrey" stroke="transparent" d="M2314.5,-406C2314.5,-406 2132.5,-406 2132.5,-406 2126.5,-406 2120.5,-400 2120.5,-394 2120.5,-394 2120.5,-380 2120.5,-380 2120.5,-374 2126.5,-368 2132.5,-368 2132.5,-368 2314.5,-368 2314.5,-368 2320.5,-368 2326.5,-374 2326.5,-380 2326.5,-380 2326.5,-394 2326.5,-394 2326.5,-400 2320.5,-406 2314.5,-406"/>
<text text-anchor="middle" x="2223.5" y="-390.8" font-family="Times,serif" font-size="14.00" fill="#101010">SplitPosition: y at 4.91692</text>
<text text-anchor="middle" x="2223.5" y="-375.8" font-family="Times,serif" font-size="14.00" fill="#101010">321 subtriangles</text>
</g>
<!-- NODE34&#45;&gt;NODE35 -->
<g id="edge35" class="edge">
<title>NODE34&#45;&gt;NODE35</title>
<path fill="none" stroke="black" d="M2223.5,-441.83C2223.5,-434.13 2223.5,-424.97 2223.5,-416.42"/>
<polygon fill="black" stroke="black" points="2227,-416.41 2223.5,-406.41 2220,-416.41 2227,-416.41"/>
</g>
<!-- NODE50 -->
<g id="node51" class="node">
<title>NODE50</title>
<path fill="lightgrey" stroke="transparent" d="M2820.5,-406C2820.5,-406 2638.5,-406 2638.5,-406 2632.5,-406 2626.5,-400 2626.5,-394 2626.5,-394 2626.5,-380 2626.5,-380 2626.5,-374 2632.5,-368 2638.5,-368 2638.5,-368 2820.5,-368 2820.5,-368 2826.5,-368 2832.5,-374 2832.5,-380 2832.5,-380 2832.5,-394 2832.5,-394 2832.5,-400 2826.5,-406 2820.5,-406"/>
<text text-anchor="middle" x="2729.5" y="-390.8" font-family="Times,serif" font-size="14.00" fill="#101010">SplitPosition: y at 4.45171</text>
<text text-anchor="middle" x="2729.5" y="-375.8" font-family="Times,serif" font-size="14.00" fill="#101010">271 subtriangles</text>
</g>
<!-- NODE34&#45;&gt;NODE50 -->
<g id="edge50" class="edge">
<title>NODE34&#45;&gt;NODE50</title>
<path fill="none" stroke="black" d="M2338,-443.71C2421.21,-431.87 2533.3,-415.92 2616.22,-404.12"/>
<polygon fill="black" stroke="black" points="2616.77,-407.58 2626.18,-402.7 2615.79,-400.65 2616.77,-407.58"/>
</g>
<!-- NODE36 -->
<g id="node37" class="node">
<title>NODE36</title>
<path fill="lightgrey" stroke="transparent" d="M2202.5,-332C2202.5,-332 2016.5,-332 2016.5,-332 2010.5,-332 2004.5,-326 2004.5,-320 2004.5,-320 2004.5,-306 2004.5,-306 2004.5,-300 2010.5,-294 2016.5,-294 2016.5,-294 2202.5,-294 2202.5,-294 2208.5,-294 2214.5,-300 2214.5,-306 2214.5,-306 2214.5,-320 2214.5,-320 2214.5,-326 2208.5,-332 2202.5,-332"/>
<text text-anchor="middle" x="2109.5" y="-316.8" font-family="Times,serif" font-size="14.00" fill="#101010">SplitPosition: z at &#45;0.37994</text>
<text text-anchor="middle" x="2109.5" y="-301.8" font-family="Times,serif" font-size="14.00" fill="#101010">124 subtriangles</text>
</g>
<!-- NODE35&#45;&gt;NODE36 -->
<g id="edge36" class="edge">
<title>NODE35&#45;&gt;NODE36</title>
<path fill="none" stroke="black" d="M2194.73,-367.83C2180.29,-358.71 2162.6,-347.54 2147.1,-337.74"/>
<polygon fill="black" stroke="black" points="2148.58,-334.54 2138.26,-332.16 2144.84,-340.46 2148.58,-334.54"/>
</g>
<!-- NODE41 -->
<g id="node42" class="node">
<title>NODE41</title>
<path fill="lightgrey" stroke="transparent" d="M2430.5,-332C2430.5,-332 2244.5,-332 2244.5,-332 2238.5,-332 2232.5,-326 2232.5,-320 2232.5,-320 2232.5,-306 2232.5,-306 2232.5,-300 2238.5,-294 2244.5,-294 2244.5,-294 2430.5,-294 2430.5,-294 2436.5,-294 2442.5,-300 2442.5,-306 2442.5,-306 2442.5,-320 2442.5,-320 2442.5,-326 2436.5,-332 2430.5,-332"/>
<text text-anchor="middle" x="2337.5" y="-316.8" font-family="Times,serif" font-size="14.00" fill="#101010">SplitPosition: z at &#45;0.24192</text>
<text text-anchor="middle" x="2337.5" y="-301.8" font-family="Times,serif" font-size="14.00" fill="#101010">197 subtriangles</text>
</g>
<!-- NODE35&#45;&gt;NODE41 -->
<g id="edge41" class="edge">
<title>NODE35&#45;&gt;NODE41</title>
<path fill="none" stroke="black" d="M2252.27,-367.83C2266.71,-358.71 2284.4,-347.54 2299.9,-337.74"/>
<polygon fill="black" stroke="black" points="2302.16,-340.46 2308.74,-332.16 2298.42,-334.54 2302.16,-340.46"/>
</g>
<!-- NODE37 -->
<g id="node38" class="node">
<title>NODE37</title>
<path fill="lightgrey" stroke="transparent" d="M2051.5,-258C2051.5,-258 1855.5,-258 1855.5,-258 1849.5,-258 1843.5,-252 1843.5,-246 1843.5,-246 1843.5,-232 1843.5,-232 1843.5,-226 1849.5,-220 1855.5,-220 1855.5,-220 2051.5,-220 2051.5,-220 2057.5,-220 2063.5,-226 2063.5,-232 2063.5,-232 2063.5,-246 2063.5,-246 2063.5,-252 2057.5,-258 2051.5,-258"/>
<text text-anchor="middle" x="1953.5" y="-242.8" font-family="Times,serif" font-size="14.00" fill="#101010">SplitPosition: x at &#45;0.775712</text>
<text text-anchor="middle" x="1953.5" y="-227.8" font-family="Times,serif" font-size="14.00" fill="#101010">79 subtriangles</text>
</g>
<!-- NODE36&#45;&gt;NODE37 -->
<g id="edge37" class="edge">
<title>NODE36&#45;&gt;NODE37</title>
<path fill="none" stroke="black" d="M2070.13,-293.83C2049.36,-284.24 2023.7,-272.4 2001.74,-262.27"/>
<polygon fill="black" stroke="black" points="2003.13,-259.05 1992.58,-258.04 2000.2,-265.41 2003.13,-259.05"/>
</g>
<!-- NODE40 -->
<g id="node41" class="node">
<title>NODE40</title>
<path fill="lightgrey" stroke="transparent" d="M2173,-257C2173,-257 2094,-257 2094,-257 2088,-257 2082,-251 2082,-245 2082,-245 2082,-233 2082,-233 2082,-227 2088,-221 2094,-221 2094,-221 2173,-221 2173,-221 2179,-221 2185,-227 2185,-233 2185,-233 2185,-245 2185,-245 2185,-251 2179,-257 2173,-257"/>
<text text-anchor="middle" x="2133.5" y="-235.3" font-family="Times,serif" font-size="14.00" fill="#101010">45 triangles</text>
</g>
<!-- NODE36&#45;&gt;NODE40 -->
<g id="edge40" class="edge">
<title>NODE36&#45;&gt;NODE40</title>
<path fill="none" stroke="black" d="M2115.56,-293.83C2118.26,-285.72 2121.5,-275.99 2124.48,-267.05"/>
<polygon fill="black" stroke="black" points="2127.85,-268.01 2127.69,-257.42 2121.21,-265.8 2127.85,-268.01"/>
</g>
<!-- NODE38 -->
<g id="node39" class="node">
<title>NODE38</title>
<path fill="lightgrey" stroke="transparent" d="M1993,-183C1993,-183 1914,-183 1914,-183 1908,-183 1902,-177 1902,-171 1902,-171 1902,-159 1902,-159 1902,-153 1908,-147 1914,-147 1914,-147 1993,-147 1993,-147 1999,-147 2005,-153 2005,-159 2005,-159 2005,-171 2005,-171 2005,-177 1999,-183 1993,-183"/>
<text text-anchor="middle" x="1953.5" y="-161.3" font-family="Times,serif" font-size="14.00" fill="#101010">36 triangles</text>
</g>
<!-- NODE37&#45;&gt;NODE38 -->
<g id="edge38" class="edge">
<title>NODE37&#45;&gt;NODE38</title>
<path fill="none" stroke="black" d="M1953.5,-219.83C1953.5,-211.89 1953.5,-202.41 1953.5,-193.63"/>
<polygon fill="black" stroke="black" points="1957,-193.42 1953.5,-183.42 1950,-193.42 1957,-193.42"/>
</g>
<!-- NODE39 -->
<g id="node40" class="node">
<title>NODE39</title>
<path fill="lightgrey" stroke="transparent" d="M2114,-183C2114,-183 2035,-183 2035,-183 2029,-183 2023,-177 2023,-171 2023,-171 2023,-159 2023,-159 2023,-153 2029,-147 2035,-147 2035,-147 2114,-147 2114,-147 2120,-147 2126,-153 2126,-159 2126,-159 2126,-171 2126,-171 2126,-177 2120,-183 2114,-183"/>
<text text-anchor="middle" x="2074.5" y="-161.3" font-family="Times,serif" font-size="14.00" fill="#101010">43 triangles</text>
</g>
<!-- NODE37&#45;&gt;NODE39 -->
<g id="edge39" class="edge">
<title>NODE37&#45;&gt;NODE39</title>
<path fill="none" stroke="black" d="M1984.03,-219.83C2000.13,-210.25 2020.01,-198.42 2037.04,-188.29"/>
<polygon fill="black" stroke="black" points="2038.84,-191.29 2045.64,-183.17 2035.26,-185.28 2038.84,-191.29"/>
</g>
<!-- NODE42 -->
<g id="node43" class="node">
<title>NODE42</title>
<path fill="lightgrey" stroke="transparent" d="M2411.5,-258C2411.5,-258 2215.5,-258 2215.5,-258 2209.5,-258 2203.5,-252 2203.5,-246 2203.5,-246 2203.5,-232 2203.5,-232 2203.5,-226 2209.5,-220 2215.5,-220 2215.5,-220 2411.5,-220 2411.5,-220 2417.5,-220 2423.5,-226 2423.5,-232 2423.5,-232 2423.5,-246 2423.5,-246 2423.5,-252 2417.5,-258 2411.5,-258"/>
<text text-anchor="middle" x="2313.5" y="-242.8" font-family="Times,serif" font-size="14.00" fill="#101010">SplitPosition: x at &#45;0.873637</text>
<text text-anchor="middle" x="2313.5" y="-227.8" font-family="Times,serif" font-size="14.00" fill="#101010">158 subtriangles</text>
</g>
<!-- NODE41&#45;&gt;NODE42 -->
<g id="edge42" class="edge">
<title>NODE41&#45;&gt;NODE42</title>
<path fill="none" stroke="black" d="M2331.44,-293.83C2328.85,-286.05 2325.76,-276.77 2322.88,-268.13"/>
<polygon fill="black" stroke="black" points="2326.12,-266.79 2319.64,-258.41 2319.48,-269.01 2326.12,-266.79"/>
</g>
<!-- NODE49 -->
<g id="node50" class="node">
<title>NODE49</title>
<path fill="lightgrey" stroke="transparent" d="M2533,-257C2533,-257 2454,-257 2454,-257 2448,-257 2442,-251 2442,-245 2442,-245 2442,-233 2442,-233 2442,-227 2448,-221 2454,-221 2454,-221 2533,-221 2533,-221 2539,-221 2545,-227 2545,-233 2545,-233 2545,-245 2545,-245 2545,-251 2539,-257 2533,-257"/>
<text text-anchor="middle" x="2493.5" y="-235.3" font-family="Times,serif" font-size="14.00" fill="#101010">39 triangles</text>
</g>
<!-- NODE41&#45;&gt;NODE49 -->
<g id="edge49" class="edge">
<title>NODE41&#45;&gt;NODE49</title>
<path fill="none" stroke="black" d="M2376.87,-293.83C2398.27,-283.95 2424.86,-271.68 2447.25,-261.35"/>
<polygon fill="black" stroke="black" points="2448.95,-264.42 2456.56,-257.05 2446.01,-258.06 2448.95,-264.42"/>
</g>
<!-- NODE43 -->
<g id="node44" class="node">
<title>NODE43</title>
<path fill="lightgrey" stroke="transparent" d="M2274,-183C2274,-183 2195,-183 2195,-183 2189,-183 2183,-177 2183,-171 2183,-171 2183,-159 2183,-159 2183,-153 2189,-147 2195,-147 2195,-147 2274,-147 2274,-147 2280,-147 2286,-153 2286,-159 2286,-159 2286,-171 2286,-171 2286,-177 2280,-183 2274,-183"/>
<text text-anchor="middle" x="2234.5" y="-161.3" font-family="Times,serif" font-size="14.00" fill="#101010">40 triangles</text>
</g>
<!-- NODE42&#45;&gt;NODE43 -->
<g id="edge43" class="edge">
<title>NODE42&#45;&gt;NODE43</title>
<path fill="none" stroke="black" d="M2293.56,-219.83C2283.63,-210.78 2271.5,-199.72 2260.81,-189.98"/>
<polygon fill="black" stroke="black" points="2263.09,-187.32 2253.34,-183.17 2258.37,-192.49 2263.09,-187.32"/>
</g>
<!-- NODE44 -->
<g id="node45" class="node">
<title>NODE44</title>
<path fill="lightgrey" stroke="transparent" d="M2498.5,-184C2498.5,-184 2316.5,-184 2316.5,-184 2310.5,-184 2304.5,-178 2304.5,-172 2304.5,-172 2304.5,-158 2304.5,-158 2304.5,-152 2310.5,-146 2316.5,-146 2316.5,-146 2498.5,-146 2498.5,-146 2504.5,-146 2510.5,-152 2510.5,-158 2510.5,-158 2510.5,-172 2510.5,-172 2510.5,-178 2504.5,-184 2498.5,-184"/>
<text text-anchor="middle" x="2407.5" y="-168.8" font-family="Times,serif" font-size="14.00" fill="#101010">SplitPosition: y at 6.04664</text>
<text text-anchor="middle" x="2407.5" y="-153.8" font-family="Times,serif" font-size="14.00" fill="#101010">118 subtriangles</text>
</g>
<!-- NODE42&#45;&gt;NODE44 -->
<g id="edge44" class="edge">
<title>NODE42&#45;&gt;NODE44</title>
<path fill="none" stroke="black" d="M2337.22,-219.83C2348.91,-210.88 2363.17,-199.96 2375.78,-190.3"/>
<polygon fill="black" stroke="black" points="2377.98,-193.02 2383.79,-184.16 2373.72,-187.47 2377.98,-193.02"/>
</g>
<!-- NODE45 -->
<g id="node46" class="node">
<title>NODE45</title>
<path fill="lightgrey" stroke="transparent" d="M2268,-109C2268,-109 2189,-109 2189,-109 2183,-109 2177,-103 2177,-97 2177,-97 2177,-85 2177,-85 2177,-79 2183,-73 2189,-73 2189,-73 2268,-73 2268,-73 2274,-73 2280,-79 2280,-85 2280,-85 2280,-97 2280,-97 2280,-103 2274,-109 2268,-109"/>
<text text-anchor="middle" x="2228.5" y="-87.3" font-family="Times,serif" font-size="14.00" fill="#101010">42 triangles</text>
</g>
<!-- NODE44&#45;&gt;NODE45 -->
<g id="edge45" class="edge">
<title>NODE44&#45;&gt;NODE45</title>
<path fill="none" stroke="black" d="M2362.33,-145.83C2337.33,-135.78 2306.16,-123.24 2280.2,-112.79"/>
<polygon fill="black" stroke="black" points="2281.47,-109.53 2270.89,-109.05 2278.86,-116.03 2281.47,-109.53"/>
</g>
<!-- NODE46 -->
<g id="node47" class="node">
<title>NODE46</title>
<path fill="lightgrey" stroke="transparent" d="M2505,-110C2505,-110 2310,-110 2310,-110 2304,-110 2298,-104 2298,-98 2298,-98 2298,-84 2298,-84 2298,-78 2304,-72 2310,-72 2310,-72 2505,-72 2505,-72 2511,-72 2517,-78 2517,-84 2517,-84 2517,-98 2517,-98 2517,-104 2511,-110 2505,-110"/>
<text text-anchor="middle" x="2407.5" y="-94.8" font-family="Times,serif" font-size="14.00" fill="#101010">SplitPosition: z at &#45;0.621352</text>
<text text-anchor="middle" x="2407.5" y="-79.8" font-family="Times,serif" font-size="14.00" fill="#101010">76 subtriangles</text>
</g>
<!-- NODE44&#45;&gt;NODE46 -->
<g id="edge46" class="edge">
<title>NODE44&#45;&gt;NODE46</title>
<path fill="none" stroke="black" d="M2407.5,-145.83C2407.5,-138.13 2407.5,-128.97 2407.5,-120.42"/>
<polygon fill="black" stroke="black" points="2411,-120.41 2407.5,-110.41 2404,-120.41 2411,-120.41"/>
</g>
<!-- NODE47 -->
<g id="node48" class="node">
<title>NODE47</title>
<path fill="lightgrey" stroke="transparent" d="M2387,-36C2387,-36 2308,-36 2308,-36 2302,-36 2296,-30 2296,-24 2296,-24 2296,-12 2296,-12 2296,-6 2302,0 2308,0 2308,0 2387,0 2387,0 2393,0 2399,-6 2399,-12 2399,-12 2399,-24 2399,-24 2399,-30 2393,-36 2387,-36"/>
<text text-anchor="middle" x="2347.5" y="-14.3" font-family="Times,serif" font-size="14.00" fill="#101010">31 triangles</text>
</g>
<!-- NODE46&#45;&gt;NODE47 -->
<g id="edge47" class="edge">
<title>NODE46&#45;&gt;NODE47</title>
<path fill="none" stroke="black" d="M2392.05,-71.72C2384.85,-63.2 2376.18,-52.94 2368.41,-43.74"/>
<polygon fill="black" stroke="black" points="2371,-41.38 2361.87,-36 2365.65,-45.9 2371,-41.38"/>
</g>
<!-- NODE48 -->
<g id="node49" class="node">
<title>NODE48</title>
<path fill="lightgrey" stroke="transparent" d="M2508,-36C2508,-36 2429,-36 2429,-36 2423,-36 2417,-30 2417,-24 2417,-24 2417,-12 2417,-12 2417,-6 2423,0 2429,0 2429,0 2508,0 2508,0 2514,0 2520,-6 2520,-12 2520,-12 2520,-24 2520,-24 2520,-30 2514,-36 2508,-36"/>
<text text-anchor="middle" x="2468.5" y="-14.3" font-family="Times,serif" font-size="14.00" fill="#101010">45 triangles</text>
</g>
<!-- NODE46&#45;&gt;NODE48 -->
<g id="edge48" class="edge">
<title>NODE46&#45;&gt;NODE48</title>
<path fill="none" stroke="black" d="M2423.21,-71.72C2430.53,-63.2 2439.34,-52.94 2447.24,-43.74"/>
<polygon fill="black" stroke="black" points="2450.03,-45.87 2453.89,-36 2444.72,-41.31 2450.03,-45.87"/>
</g>
<!-- NODE51 -->
<g id="node52" class="node">
<title>NODE51</title>
<path fill="lightgrey" stroke="transparent" d="M2827,-332C2827,-332 2632,-332 2632,-332 2626,-332 2620,-326 2620,-320 2620,-320 2620,-306 2620,-306 2620,-300 2626,-294 2632,-294 2632,-294 2827,-294 2827,-294 2833,-294 2839,-300 2839,-306 2839,-306 2839,-320 2839,-320 2839,-326 2833,-332 2827,-332"/>
<text text-anchor="middle" x="2729.5" y="-316.8" font-family="Times,serif" font-size="14.00" fill="#101010">SplitPosition: z at &#45;0.519483</text>
<text text-anchor="middle" x="2729.5" y="-301.8" font-family="Times,serif" font-size="14.00" fill="#101010">138 subtriangles</text>
</g>
<!-- NODE50&#45;&gt;NODE51 -->
<g id="edge51" class="edge">
<title>NODE50&#45;&gt;NODE51</title>
<path fill="none" stroke="black" d="M2729.5,-367.83C2729.5,-360.13 2729.5,-350.97 2729.5,-342.42"/>
<polygon fill="black" stroke="black" points="2733,-342.41 2729.5,-332.41 2726,-342.41 2733,-342.41"/>
</g>
<!-- NODE58 -->
<g id="node59" class="node">
<title>NODE58</title>
<path fill="lightgrey" stroke="transparent" d="M3122,-332C3122,-332 2927,-332 2927,-332 2921,-332 2915,-326 2915,-320 2915,-320 2915,-306 2915,-306 2915,-300 2921,-294 2927,-294 2927,-294 3122,-294 3122,-294 3128,-294 3134,-300 3134,-306 3134,-306 3134,-320 3134,-320 3134,-326 3128,-332 3122,-332"/>
<text text-anchor="middle" x="3024.5" y="-316.8" font-family="Times,serif" font-size="14.00" fill="#101010">SplitPosition: z at &#45;0.340188</text>
<text text-anchor="middle" x="3024.5" y="-301.8" font-family="Times,serif" font-size="14.00" fill="#101010">133 subtriangles</text>
</g>
<!-- NODE50&#45;&gt;NODE58 -->
<g id="edge58" class="edge">
<title>NODE50&#45;&gt;NODE58</title>
<path fill="none" stroke="black" d="M2803.56,-367.92C2845.28,-357.74 2897.53,-344.99 2940.74,-334.44"/>
<polygon fill="black" stroke="black" points="2941.78,-337.79 2950.67,-332.02 2940.12,-330.99 2941.78,-337.79"/>
</g>
<!-- NODE52 -->
<g id="node53" class="node">
<title>NODE52</title>
<path fill="lightgrey" stroke="transparent" d="M2766,-258C2766,-258 2575,-258 2575,-258 2569,-258 2563,-252 2563,-246 2563,-246 2563,-232 2563,-232 2563,-226 2569,-220 2575,-220 2575,-220 2766,-220 2766,-220 2772,-220 2778,-226 2778,-232 2778,-232 2778,-246 2778,-246 2778,-252 2772,-258 2766,-258"/>
<text text-anchor="middle" x="2670.5" y="-242.8" font-family="Times,serif" font-size="14.00" fill="#101010">SplitPosition: x at 0.605372</text>
<text text-anchor="middle" x="2670.5" y="-227.8" font-family="Times,serif" font-size="14.00" fill="#101010">99 subtriangles</text>
</g>
<!-- NODE51&#45;&gt;NODE52 -->
<g id="edge52" class="edge">
<title>NODE51&#45;&gt;NODE52</title>
<path fill="none" stroke="black" d="M2714.61,-293.83C2707.75,-285.45 2699.47,-275.35 2691.95,-266.17"/>
<polygon fill="black" stroke="black" points="2694.63,-263.93 2685.59,-258.41 2689.22,-268.37 2694.63,-263.93"/>
</g>
<!-- NODE57 -->
<g id="node58" class="node">
<title>NODE57</title>
<path fill="lightgrey" stroke="transparent" d="M2887,-257C2887,-257 2808,-257 2808,-257 2802,-257 2796,-251 2796,-245 2796,-245 2796,-233 2796,-233 2796,-227 2802,-221 2808,-221 2808,-221 2887,-221 2887,-221 2893,-221 2899,-227 2899,-233 2899,-233 2899,-245 2899,-245 2899,-251 2893,-257 2887,-257"/>
<text text-anchor="middle" x="2847.5" y="-235.3" font-family="Times,serif" font-size="14.00" fill="#101010">39 triangles</text>
</g>
<!-- NODE51&#45;&gt;NODE57 -->
<g id="edge57" class="edge">
<title>NODE51&#45;&gt;NODE57</title>
<path fill="none" stroke="black" d="M2759.28,-293.83C2774.83,-284.34 2794.01,-272.64 2810.51,-262.57"/>
<polygon fill="black" stroke="black" points="2812.64,-265.37 2819.36,-257.17 2809,-259.39 2812.64,-265.37"/>
</g>
<!-- NODE53 -->
<g id="node54" class="node">
<title>NODE53</title>
<path fill="lightgrey" stroke="transparent" d="M2761.5,-184C2761.5,-184 2579.5,-184 2579.5,-184 2573.5,-184 2567.5,-178 2567.5,-172 2567.5,-172 2567.5,-158 2567.5,-158 2567.5,-152 2573.5,-146 2579.5,-146 2579.5,-146 2761.5,-146 2761.5,-146 2767.5,-146 2773.5,-152 2773.5,-158 2773.5,-158 2773.5,-172 2773.5,-172 2773.5,-178 2767.5,-184 2761.5,-184"/>
<text text-anchor="middle" x="2670.5" y="-168.8" font-family="Times,serif" font-size="14.00" fill="#101010">SplitPosition: y at 3.75664</text>
<text text-anchor="middle" x="2670.5" y="-153.8" font-family="Times,serif" font-size="14.00" fill="#101010">65 subtriangles</text>
</g>
<!-- NODE52&#45;&gt;NODE53 -->
<g id="edge53" class="edge">
<title>NODE52&#45;&gt;NODE53</title>
<path fill="none" stroke="black" d="M2670.5,-219.83C2670.5,-212.13 2670.5,-202.97 2670.5,-194.42"/>
<polygon fill="black" stroke="black" points="2674,-194.41 2670.5,-184.41 2667,-194.41 2674,-194.41"/>
</g>
<!-- NODE56 -->
<g id="node57" class="node">
<title>NODE56</title>
<path fill="lightgrey" stroke="transparent" d="M2883,-183C2883,-183 2804,-183 2804,-183 2798,-183 2792,-177 2792,-171 2792,-171 2792,-159 2792,-159 2792,-153 2798,-147 2804,-147 2804,-147 2883,-147 2883,-147 2889,-147 2895,-153 2895,-159 2895,-159 2895,-171 2895,-171 2895,-177 2889,-183 2883,-183"/>
<text text-anchor="middle" x="2843.5" y="-161.3" font-family="Times,serif" font-size="14.00" fill="#101010">34 triangles</text>
</g>
<!-- NODE52&#45;&gt;NODE56 -->
<g id="edge56" class="edge">
<title>NODE52&#45;&gt;NODE56</title>
<path fill="none" stroke="black" d="M2714.16,-219.83C2738.21,-209.82 2768.18,-197.35 2793.21,-186.93"/>
<polygon fill="black" stroke="black" points="2794.65,-190.12 2802.54,-183.05 2791.96,-183.66 2794.65,-190.12"/>
</g>
<!-- NODE54 -->
<g id="node55" class="node">
<title>NODE54</title>
<path fill="lightgrey" stroke="transparent" d="M2627,-109C2627,-109 2548,-109 2548,-109 2542,-109 2536,-103 2536,-97 2536,-97 2536,-85 2536,-85 2536,-79 2542,-73 2548,-73 2548,-73 2627,-73 2627,-73 2633,-73 2639,-79 2639,-85 2639,-85 2639,-97 2639,-97 2639,-103 2633,-109 2627,-109"/>
<text text-anchor="middle" x="2587.5" y="-87.3" font-family="Times,serif" font-size="14.00" fill="#101010">32 triangles</text>
</g>
<!-- NODE53&#45;&gt;NODE54 -->
<g id="edge54" class="edge">
<title>NODE53&#45;&gt;NODE54</title>
<path fill="none" stroke="black" d="M2649.56,-145.83C2639.12,-136.78 2626.37,-125.72 2615.14,-115.98"/>
<polygon fill="black" stroke="black" points="2617.14,-113.08 2607.29,-109.17 2612.56,-118.37 2617.14,-113.08"/>
</g>
<!-- NODE55 -->
<g id="node56" class="node">
<title>NODE55</title>
<path fill="lightgrey" stroke="transparent" d="M2748,-109C2748,-109 2669,-109 2669,-109 2663,-109 2657,-103 2657,-97 2657,-97 2657,-85 2657,-85 2657,-79 2663,-73 2669,-73 2669,-73 2748,-73 2748,-73 2754,-73 2760,-79 2760,-85 2760,-85 2760,-97 2760,-97 2760,-103 2754,-109 2748,-109"/>
<text text-anchor="middle" x="2708.5" y="-87.3" font-family="Times,serif" font-size="14.00" fill="#101010">33 triangles</text>
</g>
<!-- NODE53&#45;&gt;NODE55 -->
<g id="edge55" class="edge">
<title>NODE53&#45;&gt;NODE55</title>
<path fill="none" stroke="black" d="M2680.09,-145.83C2684.46,-137.55 2689.73,-127.57 2694.53,-118.47"/>
<polygon fill="black" stroke="black" points="2697.74,-119.9 2699.31,-109.42 2691.54,-116.63 2697.74,-119.9"/>
</g>
<!-- NODE59 -->
<g id="node60" class="node">
<title>NODE59</title>
<path fill="lightgrey" stroke="transparent" d="M3120,-258C3120,-258 2929,-258 2929,-258 2923,-258 2917,-252 2917,-246 2917,-246 2917,-232 2917,-232 2917,-226 2923,-220 2929,-220 2929,-220 3120,-220 3120,-220 3126,-220 3132,-226 3132,-232 3132,-232 3132,-246 3132,-246 3132,-252 3126,-258 3120,-258"/>
<text text-anchor="middle" x="3024.5" y="-242.8" font-family="Times,serif" font-size="14.00" fill="#101010">SplitPosition: x at 0.427181</text>
<text text-anchor="middle" x="3024.5" y="-227.8" font-family="Times,serif" font-size="14.00" fill="#101010">94 subtriangles</text>
</g>
<!-- NODE58&#45;&gt;NODE59 -->
<g id="edge59" class="edge">
<title>NODE58&#45;&gt;NODE59</title>
<path fill="none" stroke="black" d="M3024.5,-293.83C3024.5,-286.13 3024.5,-276.97 3024.5,-268.42"/>
<polygon fill="black" stroke="black" points="3028,-268.41 3024.5,-258.41 3021,-268.41 3028,-268.41"/>
</g>
<!-- NODE62 -->
<g id="node63" class="node">
<title>NODE62</title>
<path fill="lightgrey" stroke="transparent" d="M3241,-257C3241,-257 3162,-257 3162,-257 3156,-257 3150,-251 3150,-245 3150,-245 3150,-233 3150,-233 3150,-227 3156,-221 3162,-221 3162,-221 3241,-221 3241,-221 3247,-221 3253,-227 3253,-233 3253,-233 3253,-245 3253,-245 3253,-251 3247,-257 3241,-257"/>
<text text-anchor="middle" x="3201.5" y="-235.3" font-family="Times,serif" font-size="14.00" fill="#101010">39 triangles</text>
</g>
<!-- NODE58&#45;&gt;NODE62 -->
<g id="edge62" class="edge">
<title>NODE58&#45;&gt;NODE62</title>
<path fill="none" stroke="black" d="M3069.16,-293.83C3093.77,-283.82 3124.43,-271.35 3150.04,-260.93"/>
<polygon fill="black" stroke="black" points="3151.64,-264.06 3159.59,-257.05 3149.01,-257.57 3151.64,-264.06"/>
</g>
<!-- NODE60 -->
<g id="node61" class="node">
<title>NODE60</title>
<path fill="lightgrey" stroke="transparent" d="M3034,-183C3034,-183 2955,-183 2955,-183 2949,-183 2943,-177 2943,-171 2943,-171 2943,-159 2943,-159 2943,-153 2949,-147 2955,-147 2955,-147 3034,-147 3034,-147 3040,-147 3046,-153 3046,-159 3046,-159 3046,-171 3046,-171 3046,-177 3040,-183 3034,-183"/>
<text text-anchor="middle" x="2994.5" y="-161.3" font-family="Times,serif" font-size="14.00" fill="#101010">55 triangles</text>
</g>
<!-- NODE59&#45;&gt;NODE60 -->
<g id="edge60" class="edge">
<title>NODE59&#45;&gt;NODE60</title>
<path fill="none" stroke="black" d="M3016.93,-219.83C3013.51,-211.63 3009.41,-201.78 3005.65,-192.76"/>
<polygon fill="black" stroke="black" points="3008.83,-191.3 3001.76,-183.42 3002.37,-193.99 3008.83,-191.3"/>
</g>
<!-- NODE61 -->
<g id="node62" class="node">
<title>NODE61</title>
<path fill="lightgrey" stroke="transparent" d="M3155,-183C3155,-183 3076,-183 3076,-183 3070,-183 3064,-177 3064,-171 3064,-171 3064,-159 3064,-159 3064,-153 3070,-147 3076,-147 3076,-147 3155,-147 3155,-147 3161,-147 3167,-153 3167,-159 3167,-159 3167,-171 3167,-171 3167,-177 3161,-183 3155,-183"/>
<text text-anchor="middle" x="3115.5" y="-161.3" font-family="Times,serif" font-size="14.00" fill="#101010">39 triangles</text>
</g>
<!-- NODE59&#45;&gt;NODE61 -->
<g id="edge61" class="edge">
<title>NODE59&#45;&gt;NODE61</title>
<path fill="none" stroke="black" d="M3047.46,-219.83C3059.12,-210.6 3073.43,-199.29 3085.91,-189.41"/>
<polygon fill="black" stroke="black" points="3088.13,-192.12 3093.8,-183.17 3083.78,-186.63 3088.13,-192.12"/>
</g>
</g>
</svg>
