<?xml version="1.0" encoding="UTF-8" standalone="no"?>
<!DOCTYPE svg PUBLIC "-//W3C//DTD SVG 1.1//EN"
 "http://www.w3.org/Graphics/SVG/1.1/DTD/svg11.dtd">
<!-- Generated by graphviz version 2.43.0 (0)
 -->
<!-- Title: kdtree Pages: 1 -->
<svg width="214pt" height="118pt"
 viewBox="0.00 0.00 214.00 118.00" xmlns="http://www.w3.org/2000/svg" xmlns:xlink="http://www.w3.org/1999/xlink">
<g id="graph0" class="graph" transform="scale(1 1) rotate(0) translate(4 114)">
<title>kdtree</title>
<polygon fill="white" stroke="transparent" points="-4,4 -4,-114 210,-114 210,4 -4,4"/>
<!-- NODE0 -->
<g id="node1" class="node">
<title>NODE0</title>
<path fill="lightgrey" stroke="transparent" d="M169.5,-110C169.5,-110 36.5,-110 36.5,-110 30.5,-110 24.5,-104 24.5,-98 24.5,-98 24.5,-84 24.5,-84 24.5,-78 30.5,-72 36.5,-72 36.5,-72 169.5,-72 169.5,-72 175.5,-72 181.5,-78 181.5,-84 181.5,-84 181.5,-98 181.5,-98 181.5,-104 175.5,-110 169.5,-110"/>
<text text-anchor="middle" x="103" y="-94.8" font-family="Times,serif" font-size="14.00" fill="#101010">SplitPosition: x at 3</text>
<text text-anchor="middle" x="103" y="-79.8" font-family="Times,serif" font-size="14.00" fill="#101010">6 subtriangles</text>
</g>
<!-- NODE1 -->
<g id="node2" class="node">
<title>NODE1</title>
<path fill="lightgrey" stroke="transparent" d="M82,-36C82,-36 12,-36 12,-36 6,-36 0,-30 0,-24 0,-24 0,-12 0,-12 0,-6 6,0 12,0 12,0 82,0 82,0 88,0 94,-6 94,-12 94,-12 94,-24 94,-24 94,-30 88,-36 82,-36"/>
<text text-anchor="middle" x="47" y="-14.3" font-family="Times,serif" font-size="14.00" fill="#101010">3 triangles</text>
</g>
<!-- NODE0&#45;&gt;NODE1 -->
<g id="edge1" class="edge">
<title>NODE0&#45;&gt;NODE1</title>
<path fill="none" stroke="black" d="M88.58,-71.72C81.93,-63.29 73.93,-53.15 66.73,-44.02"/>
<polygon fill="black" stroke="black" points="69.35,-41.69 60.41,-36 63.86,-46.02 69.35,-41.69"/>
</g>
<!-- NODE2 -->
<g id="node3" class="node">
<title>NODE2</title>
<path fill="lightgrey" stroke="transparent" d="M194,-36C194,-36 124,-36 124,-36 118,-36 112,-30 112,-24 112,-24 112,-12 112,-12 112,-6 118,0 124,0 124,0 194,0 194,0 200,0 206,-6 206,-12 206,-12 206,-24 206,-24 206,-30 200,-36 194,-36"/>
<text text-anchor="middle" x="159" y="-14.3" font-family="Times,serif" font-size="14.00" fill="#101010">3 triangles</text>
</g>
<!-- NODE0&#45;&gt;NODE2 -->
<g id="edge2" class="edge">
<title>NODE0&#45;&gt;NODE2</title>
<path fill="none" stroke="black" d="M117.42,-71.72C124.07,-63.29 132.07,-53.15 139.27,-44.02"/>
<polygon fill="black" stroke="black" points="142.14,-46.02 145.59,-36 136.65,-41.69 142.14,-46.02"/>
</g>
</g>
</svg>
